<svg version="1.1" id="Layer_1" xmlns="http://www.w3.org/2000/svg" xmlns:xlink="http://www.w3.org/1999/xlink" x="0px" y="0px"
	 width="100%" viewBox="0 0 153 150" enable-background="new 0 0 153 150" xml:space="preserve">
<path fill="#FEFFFF" opacity="1.000000" stroke="none" 
	d="
M99.000000,151.000000 
	C66.000008,151.000000 33.500008,151.000000 1.000009,151.000000 
	C1.000006,101.000008 1.000006,51.000019 1.000003,1.000022 
	C51.999985,1.000015 102.999969,1.000015 153.999969,1.000007 
	C153.999969,50.999981 153.999969,100.999962 153.999985,150.999969 
	C135.833328,151.000000 117.666664,151.000000 99.000000,151.000000 
M127.956009,123.189209 
	C138.511368,129.426376 142.438644,125.201279 142.149826,114.348137 
	C141.622421,94.530121 142.007492,74.688019 141.996094,54.855984 
	C141.991425,46.752472 138.921249,43.369404 130.191727,42.373341 
	C130.191727,64.985641 130.191727,87.542595 130.191727,109.785164 
	C120.925995,109.243629 112.151459,107.688232 103.610992,108.524246 
	C95.032333,109.363983 86.686852,112.585793 77.999786,114.825417 
	C77.999786,113.808060 77.999794,112.018631 77.999794,110.229202 
	C77.999771,90.563812 78.087189,70.897453 77.870338,51.234451 
	C77.847557,49.169113 76.580956,46.188160 74.951363,45.228767 
	C67.399681,40.782864 59.009315,38.877354 50.256943,38.264381 
	C40.177464,37.558475 30.789711,40.499859 21.386883,43.336159 
	C14.977184,45.269604 14.008169,46.863544 14.004400,53.729446 
	C13.992966,74.561417 13.998755,95.393410 14.000918,116.225395 
	C14.001893,125.604851 17.259594,127.666275 25.970556,124.023956 
	C42.707127,117.025871 58.589279,119.280708 73.982040,128.314896 
	C75.849190,129.410751 79.412201,129.844482 81.026596,128.795593 
	C95.568420,119.347542 110.874329,117.449493 127.956009,123.189209 
M91.002632,44.506355 
	C90.335190,47.140125 89.130936,49.765785 89.090988,52.409039 
	C88.892365,65.551613 88.906975,78.700188 89.098442,91.842979 
	C89.128036,93.874405 90.463867,95.886803 91.195625,97.908005 
	C93.223602,97.009842 95.569733,96.499191 97.221603,95.142944 
	C102.821548,90.545212 108.445946,85.913193 113.507927,80.751831 
	C115.970963,78.240440 118.626610,74.582504 118.754768,71.346924 
	C119.320732,57.058971 119.097542,42.734436 118.889839,28.427071 
	C118.859818,26.359692 117.360970,24.313635 116.541840,22.257711 
	C114.549149,23.155153 112.136177,23.608286 110.636459,25.026894 
	C104.111160,31.199236 97.851738,37.652660 91.002632,44.506355 
z"/>
<path fill="#4B94FF" opacity="1.000000" stroke="none" 
	d="
M127.580101,123.108215 
	C110.874329,117.449493 95.568420,119.347542 81.026596,128.795593 
	C79.412201,129.844482 75.849190,129.410751 73.982040,128.314896 
	C58.589279,119.280708 42.707127,117.025871 25.970556,124.023956 
	C17.259594,127.666275 14.001893,125.604851 14.000918,116.225395 
	C13.998755,95.393410 13.992966,74.561417 14.004400,53.729446 
	C14.008169,46.863544 14.977184,45.269604 21.386883,43.336159 
	C30.789711,40.499859 40.177464,37.558475 50.256943,38.264381 
	C59.009315,38.877354 67.399681,40.782864 74.951363,45.228767 
	C76.580956,46.188160 77.847557,49.169113 77.870338,51.234451 
	C78.087189,70.897453 77.999771,90.563812 77.999794,110.229202 
	C77.999794,112.018631 77.999786,113.808060 77.999786,114.825417 
	C86.686852,112.585793 95.032333,109.363983 103.610992,108.524246 
	C112.151459,107.688232 120.925995,109.243629 130.191727,109.785164 
	C130.191727,87.542595 130.191727,64.985641 130.191727,42.373341 
	C138.921249,43.369404 141.991425,46.752472 141.996094,54.855984 
	C142.007492,74.688019 141.622421,94.530121 142.149826,114.348137 
	C142.438644,125.201279 138.511368,129.426376 127.580101,123.108215 
z"/>
<path fill="#4B94FF" opacity="1.000000" stroke="none" 
	d="
M91.249176,44.255161 
	C97.851738,37.652660 104.111160,31.199236 110.636459,25.026894 
	C112.136177,23.608286 114.549149,23.155153 116.541840,22.257713 
	C117.360970,24.313635 118.859818,26.359692 118.889839,28.427071 
	C119.097542,42.734436 119.320732,57.058971 118.754768,71.346924 
	C118.626610,74.582504 115.970963,78.240440 113.507927,80.751831 
	C108.445946,85.913193 102.821548,90.545212 97.221603,95.142944 
	C95.569733,96.499191 93.223602,97.009842 91.195625,97.908005 
	C90.463867,95.886803 89.128036,93.874405 89.098442,91.842979 
	C88.906975,78.700188 88.892365,65.551613 89.090988,52.409039 
	C89.130936,49.765785 90.335190,47.140125 91.249176,44.255161 
z"/>
</svg>