<svg version="1.1" id="Layer_1" xmlns="http://www.w3.org/2000/svg" xmlns:xlink="http://www.w3.org/1999/xlink" x="0px" y="0px"
	 width="100%" viewBox="0 0 227 222" enable-background="new 0 0 227 222" xml:space="preserve">
<path fill="#FEFFFF" opacity="1.000000" stroke="none" 
	d="
M157.000000,223.000000 
	C104.666672,223.000000 52.833340,223.000000 1.000007,223.000000 
	C1.000005,149.000000 1.000005,75.000015 1.000002,1.000017 
	C76.666656,1.000011 152.333313,1.000011 227.999969,1.000006 
	C227.999985,74.999985 227.999985,148.999969 228.000000,222.999969 
	C204.500000,223.000000 181.000000,223.000000 157.000000,223.000000 
M23.325232,65.939964 
	C23.046974,66.204834 22.768717,66.469704 22.150076,66.892227 
	C21.937654,67.044151 21.796268,67.245865 21.233032,67.807152 
	C21.080225,68.156166 20.927420,68.505173 20.976143,68.938347 
	C20.976143,68.938347 20.793007,68.819344 20.182117,69.296356 
	C19.855303,71.248032 19.247030,73.199219 19.243584,75.151466 
	C19.185055,108.308876 19.171497,141.466522 19.269894,174.623749 
	C19.276384,176.810974 20.263275,178.995270 20.983328,181.043076 
	C20.983328,181.043076 20.776636,181.152878 20.908211,181.721069 
	C21.183989,181.984467 21.459766,182.247849 21.892092,182.849365 
	C22.042946,183.060730 22.243664,183.200455 22.819740,183.770264 
	C23.179976,183.924194 23.540211,184.078125 24.504528,184.775421 
	C27.242050,184.550797 30.356998,185.102600 32.659603,183.983261 
	C60.294559,170.549606 86.363213,173.644272 111.380974,190.685303 
	C112.564087,191.491211 115.229912,191.545944 116.387199,190.754425 
	C141.554688,173.541367 167.769302,170.499893 195.478714,184.255264 
	C200.915558,186.954193 204.723511,185.398178 208.044922,179.028305 
	C208.108749,178.198196 208.228104,177.368088 208.228394,176.537964 
	C208.240387,142.371460 208.247116,108.204948 208.223816,74.038460 
	C208.222916,72.723274 207.920166,71.408302 207.632233,69.429329 
	C204.211914,64.079849 198.318314,63.091255 192.151398,61.100346 
	C191.872101,61.828152 191.348129,62.556137 191.348679,63.283737 
	C191.373230,96.539131 191.443634,129.794479 190.671448,163.299622 
	C185.346542,162.369064 180.028854,161.394272 174.694489,160.521561 
	C170.213562,159.788483 165.699905,158.568634 161.224869,158.666611 
	C156.064499,158.779587 150.955643,160.460724 145.779816,160.821701 
	C136.257019,161.485886 127.582115,164.582123 119.250038,168.957382 
	C117.673653,169.785141 116.097435,170.613205 113.998886,171.715439 
	C113.998886,169.375259 113.998894,167.599243 113.998894,165.823227 
	C113.998894,134.714554 113.929741,103.605507 114.093750,72.497696 
	C114.112488,68.944283 112.870308,67.290558 109.870270,65.691666 
	C95.856033,58.222672 80.708786,55.798061 65.137978,55.286713 
	C62.460354,55.198784 59.752384,56.367199 57.042263,56.867691 
	C51.375206,57.914253 45.697369,58.902409 39.578762,59.441612 
	C35.684021,60.926617 31.789280,62.411625 27.970226,63.982124 
	C27.970226,63.982124 27.937021,63.872879 27.334242,63.899422 
	C26.848145,64.224113 26.362045,64.548805 25.962288,64.971161 
	C25.962288,64.971161 25.920553,64.847664 25.317881,64.886887 
	C24.834253,65.211906 24.350624,65.536926 23.954346,65.981094 
	C23.954346,65.981094 23.906425,65.841354 23.325232,65.939964 
M173.952942,109.500450 
	C173.952942,109.500450 173.870255,109.034164 174.026352,108.103943 
	C173.974319,84.058723 173.922302,60.013504 173.957092,35.502609 
	C173.957092,35.502609 173.836594,35.044487 173.862106,34.344833 
	C170.703506,30.278048 169.268906,30.082201 165.614014,33.701931 
	C154.853165,44.359264 144.108444,55.034870 133.528122,65.870010 
	C132.183228,67.247284 131.171509,69.610832 131.157532,71.525864 
	C130.994888,93.827087 130.993347,116.130394 131.164810,138.431488 
	C131.178925,140.267029 132.342194,143.018326 133.741898,143.657761 
	C135.132553,144.293060 137.979630,143.352493 139.356171,142.150421 
	C150.008270,132.848450 160.479691,123.338608 170.941803,113.821381 
	C172.106888,112.761528 172.863327,111.252449 173.952942,109.500450 
z"/>
<path fill="#1E9ED9" opacity="1.000000" stroke="none" 
	d="
M207.769760,179.920151 
	C204.723511,185.398178 200.915558,186.954193 195.478714,184.255264 
	C167.769302,170.499893 141.554688,173.541367 116.387199,190.754425 
	C115.229912,191.545944 112.564087,191.491211 111.380974,190.685303 
	C86.363213,173.644272 60.294559,170.549606 32.659603,183.983261 
	C30.356998,185.102600 27.242050,184.550797 24.060905,184.229187 
	C23.242939,183.544846 22.868593,183.406708 22.494247,183.268570 
	C22.243664,183.200455 22.042946,183.060730 21.787682,182.375702 
	C21.381058,181.652328 21.078844,181.402603 20.776634,181.152878 
	C20.776636,181.152878 20.983328,181.043076 20.940495,180.630615 
	C20.862774,143.085236 20.827890,105.952286 20.793007,68.819344 
	C20.793007,68.819344 20.976143,68.938347 21.151440,68.768311 
	C21.459793,68.231308 21.592854,67.864334 21.725914,67.497368 
	C21.796268,67.245865 21.937654,67.044151 22.622368,66.791687 
	C23.365250,66.407890 23.635838,66.124619 23.906425,65.841354 
	C23.906425,65.841354 23.954346,65.981094 24.224733,65.939224 
	C24.970266,65.547455 25.445412,65.197563 25.920555,64.847664 
	C25.920553,64.847664 25.962288,64.971161 26.231764,64.940254 
	C26.979834,64.563858 27.458427,64.218369 27.937021,63.872879 
	C27.937021,63.872879 27.970226,63.982124 28.328627,63.963459 
	C32.466003,62.601379 36.244980,61.257965 40.023956,59.914551 
	C45.697369,58.902409 51.375206,57.914253 57.042263,56.867691 
	C59.752384,56.367199 62.460354,55.198784 65.137978,55.286713 
	C80.708786,55.798061 95.856033,58.222672 109.870270,65.691666 
	C112.870308,67.290558 114.112488,68.944283 114.093750,72.497696 
	C113.929741,103.605507 113.998894,134.714554 113.998894,165.823227 
	C113.998894,167.599243 113.998886,169.375259 113.998886,171.715439 
	C116.097435,170.613205 117.673653,169.785141 119.250038,168.957382 
	C127.582115,164.582123 136.257019,161.485886 145.779816,160.821701 
	C150.955643,160.460724 156.064499,158.779587 161.224869,158.666611 
	C165.699905,158.568634 170.213562,159.788483 174.694489,160.521561 
	C180.028854,161.394272 185.346542,162.369064 191.425812,162.999329 
	C192.453659,161.124939 192.963760,159.551117 192.965714,157.976669 
	C193.005905,125.691269 192.988098,93.405792 192.981842,61.120331 
	C198.318314,63.091255 204.211914,64.079849 207.447067,70.081940 
	C207.174744,71.390060 207.011520,72.045532 207.011276,72.701073 
	C206.998550,107.176941 206.991470,141.652832 207.031769,176.128662 
	C207.033249,177.392776 207.512939,178.656326 207.769760,179.920151 
z"/>
<path fill="#1D9ED9" opacity="1.000000" stroke="none" 
	d="
M173.870270,35.968285 
	C173.922302,60.013504 173.974319,84.058723 173.798431,108.644272 
	C173.570526,109.184601 173.461670,109.616234 173.461670,109.616234 
	C173.461670,109.616234 173.809265,109.951691 173.809265,109.951691 
	C172.863327,111.252449 172.106888,112.761528 170.941803,113.821381 
	C160.479691,123.338608 150.008270,132.848450 139.356171,142.150421 
	C137.979630,143.352493 135.132553,144.293060 133.741898,143.657761 
	C132.342194,143.018326 131.178925,140.267029 131.164810,138.431488 
	C130.993347,116.130394 130.994888,93.827087 131.157532,71.525864 
	C131.171509,69.610832 132.183228,67.247284 133.528122,65.870010 
	C144.108444,55.034870 154.853165,44.359264 165.614014,33.701931 
	C169.268906,30.082201 170.703506,30.278048 173.704254,34.782681 
	C173.654358,35.469780 173.762314,35.719032 173.870270,35.968285 
z"/>
<path fill="#40AEDF" opacity="1.000000" stroke="none" 
	d="
M20.487562,69.057846 
	C20.827890,105.952286 20.862774,143.085236 20.845901,180.699554 
	C20.263275,178.995270 19.276384,176.810974 19.269894,174.623749 
	C19.171497,141.466522 19.185055,108.308876 19.243584,75.151466 
	C19.247030,73.199219 19.855303,71.248032 20.487562,69.057846 
z"/>
<path fill="#009AD7" opacity="1.000000" stroke="none" 
	d="
M192.566620,61.110336 
	C192.988098,93.405792 193.005905,125.691269 192.965714,157.976669 
	C192.963760,159.551117 192.453659,161.124939 191.844452,162.874451 
	C191.443634,129.794479 191.373230,96.539131 191.348679,63.283737 
	C191.348129,62.556137 191.872101,61.828152 192.566620,61.110336 
z"/>
<path fill="#009AD7" opacity="1.000000" stroke="none" 
	d="
M207.907349,179.474228 
	C207.512939,178.656326 207.033249,177.392776 207.031769,176.128662 
	C206.991470,141.652832 206.998550,107.176941 207.011276,72.701073 
	C207.011520,72.045532 207.174744,71.390060 207.509979,70.413895 
	C207.920166,71.408302 208.222916,72.723274 208.223816,74.038460 
	C208.247116,108.204948 208.240387,142.371460 208.228394,176.537964 
	C208.228104,177.368088 208.108749,178.198196 207.907349,179.474228 
z"/>
<path fill="#40AEDF" opacity="1.000000" stroke="none" 
	d="
M39.801361,59.678082 
	C36.244980,61.257965 32.466003,62.601379 28.290783,63.920715 
	C31.789280,62.411625 35.684021,60.926617 39.801361,59.678082 
z"/>
<path fill="#40AEDF" opacity="1.000000" stroke="none" 
	d="
M27.635632,63.886150 
	C27.458427,64.218369 26.979834,64.563858 26.188595,64.891418 
	C26.362045,64.548805 26.848145,64.224113 27.635632,63.886150 
z"/>
<path fill="#40AEDF" opacity="1.000000" stroke="none" 
	d="
M25.619217,64.867279 
	C25.445412,65.197563 24.970266,65.547455 24.181059,65.879654 
	C24.350624,65.536926 24.834253,65.211906 25.619217,64.867279 
z"/>
<path fill="#0096D6" opacity="1.000000" stroke="none" 
	d="
M173.913666,35.735447 
	C173.762314,35.719032 173.654358,35.469780 173.691498,35.132507 
	C173.836594,35.044487 173.957092,35.502609 173.913666,35.735447 
z"/>
<path fill="#40AEDF" opacity="1.000000" stroke="none" 
	d="
M23.615829,65.890656 
	C23.635838,66.124619 23.365250,66.407890 22.792561,66.712860 
	C22.768717,66.469704 23.046974,66.204834 23.615829,65.890656 
z"/>
<path fill="#40AEDF" opacity="1.000000" stroke="none" 
	d="
M21.479473,67.652260 
	C21.592854,67.864334 21.459793,68.231308 21.050674,68.726227 
	C20.927420,68.505173 21.080225,68.156166 21.479473,67.652260 
z"/>
<path fill="#0096D6" opacity="1.000000" stroke="none" 
	d="
M173.881104,109.726074 
	C173.809265,109.951691 173.461670,109.616234 173.461670,109.616234 
	C173.461670,109.616234 173.570526,109.184601 173.720398,109.109383 
	C173.870255,109.034164 173.952942,109.500450 173.881104,109.726074 
z"/>
<path fill="#40AEDF" opacity="1.000000" stroke="none" 
	d="
M20.842421,181.436981 
	C21.078844,181.402603 21.381058,181.652328 21.709408,182.206650 
	C21.459766,182.247849 21.183989,181.984467 20.842421,181.436981 
z"/>
<path fill="#40AEDF" opacity="1.000000" stroke="none" 
	d="
M22.656994,183.519409 
	C22.868593,183.406708 23.242939,183.544846 23.758865,183.957520 
	C23.540211,184.078125 23.179976,183.924194 22.656994,183.519409 
z"/>
</svg>